<svg xmlns="http://www.w3.org/2000/svg" viewBox="0 0 500 500"><g id="freepik--background-complete--inject-137"><g><g><path d="M69.03,426.92c-.02-.54-1.82-53.86-10.5-62.29-8.44-8.2-18.12-.31-18.52,.03l-.87-1.04c.11-.09,11.04-9.01,20.34,.03,9.06,8.81,10.84,61.01,10.91,63.22l-1.36,.04Z" style="fill:#e0e0e0;"></path><path d="M69.77,437.4c-.06-.64-5.93-64.01,17.22-90.58l1.02,.89c-22.76,26.12-16.95,88.92-16.89,89.55l-1.35,.13Z" style="fill:#e0e0e0;"></path><path d="M68.92,430.69l-1.35-.09c.05-.72,4.53-72.05-12.45-87.67l.92-1c17.45,16.05,13.08,85.79,12.88,88.76Z" style="fill:#e0e0e0;"></path><path d="M71.13,430.65h-1.36c.02-1.98,.56-48.19,13.69-55.72,2.92-1.67,5.78-1.95,8.49-.83,7.94,3.28,11.87,17.41,12.04,18.01l-1.31,.36c-.04-.14-3.92-14.09-11.25-17.11-2.31-.95-4.76-.7-7.3,.75-12.46,7.14-13,54.07-13.01,54.54Z" style="fill:#e0e0e0;"></path><path d="M66.01,430.68l-1.35-.08c.02-.36,1.98-36.52-7.78-49.26-2.36-3.09-4.93-4.56-7.64-4.37-6.39,.45-11.76,9.8-11.81,9.9l-1.18-.67c.23-.41,5.77-10.08,12.89-10.58,3.19-.23,6.16,1.42,8.82,4.9,10.06,13.14,8.14,48.66,8.05,50.16Z" style="fill:#e0e0e0;"></path><path d="M68.15,435.6c-.27-3.51-6.38-86.07,4.38-100.62l1.09,.81c-10.46,14.15-4.18,98.85-4.11,99.71l-1.35,.1Z" style="fill:#e0e0e0;"></path></g><path d="M94.88,382.48s-6.45,2.38-4.53,8c1.92,5.62,22.32,14.86,22.32,14.86,0,0,8.55-7.83,.7-20.57-7.85-12.74-18.31-6.3-18.49-2.28Z" style="fill:#ebebeb;"></path><path d="M66.82,371.78s6.87-.29,7.26,5.63c.39,5.92-14.89,22.31-14.89,22.31,0,0-10.9-3.94-8.56-18.72,2.34-14.78,14.48-12.86,16.18-9.22Z" style="fill:#ebebeb;"></path><path d="M61.01,343.44s4.58-.49,4.21-3.28c-.37-2.79-17.81-9.97-28.1,1.64,0,0,6.59,11.32,16.11,11.47,9.52,.15,7.77-9.82,7.77-9.82Z" style="fill:#ebebeb;"></path><path d="M69.54,336.66s-4.15,2.01-5.31-.56c-1.16-2.56,9.84-17.88,24.72-13.47,0,0,.39,13.09-7.61,18.25-8,5.16-11.79-4.23-11.79-4.23Z" style="fill:#ebebeb;"></path><path d="M47.85,380.22s3.16-2.55-.25-3.8c-3.41-1.25-20.15-.89-20.33,15.69,0,0,19.5,3.24,21.91-3.08,2.41-6.32-1.33-8.82-1.33-8.82Z" style="fill:#ebebeb;"></path><path d="M87.62,343.02s-3.16-2.55,.25-3.8,20.15-.89,20.33,15.69c0,0-19.5,3.24-21.91-3.08-2.41-6.32,1.33-8.82,1.33-8.82Z" style="fill:#ebebeb;"></path><path d="M77.31,356.38s-.28-3.1,2.23-1.89c2.51,1.22,11.23,10.63,2.19,19.57,0,0-12.18-9.02-9.98-13.72,2.2-4.7,5.57-3.96,5.57-3.96Z" style="fill:#ebebeb;"></path><path d="M45.03,360.8s1.89-2.48-.88-2.78c-2.77-.31-15.17,3-12.28,15.39,0,0,15.11-1.14,15.76-6.28,.65-5.14-2.6-6.32-2.6-6.32Z" style="fill:#ebebeb;"></path><polygon points="83.83 454.57 53.35 454.57 45.24 417.17 91.17 417.17 83.83 454.57" style="fill:#f0f0f0;"></polygon><rect x="42.47" y="416.63" width="51.34" height="10.75" style="fill:#e6e6e6;"></rect></g><g><g><g><path d="M443.92,345.06h-180.75c-3.23,0-5.86-2.63-5.86-5.86V75.93c0-3.23,2.63-5.86,5.86-5.86h180.75c3.23,0,5.86,2.63,5.86,5.86V339.2c0,3.23-2.63,5.86-5.86,5.86ZM263.17,70.31c-3.09,0-5.61,2.52-5.61,5.61V339.2c0,3.09,2.52,5.61,5.61,5.61h180.75c3.09,0,5.61-2.52,5.61-5.61V75.93c0-3.09-2.52-5.61-5.61-5.61h-180.75Z" style="fill:#e0e0e0;"></path><path d="M235.49,345.06H54.75c-3.23,0-5.86-2.63-5.86-5.86V75.93c0-3.23,2.63-5.86,5.86-5.86H235.49c3.23,0,5.86,2.63,5.86,5.86V339.2c0,3.23-2.63,5.86-5.86,5.86ZM54.75,70.31c-3.09,0-5.61,2.52-5.61,5.61V339.2c0,3.09,2.52,5.61,5.61,5.61H235.49c3.09,0,5.61-2.52,5.61-5.61V75.93c0-3.09-2.52-5.61-5.61-5.61H54.75Z" style="fill:#e0e0e0;"></path></g><rect x="0" y="406.13" width="500" height=".25" style="fill:#e0e0e0;"></rect></g><rect x="51.67" y="420.4" width="16.06" height=".25" style="fill:#e0e0e0;"></rect><rect x="170.35" y="417.69" width="53.53" height=".25" style="fill:#e0e0e0;"></rect><rect x="68.73" y="429.69" width="36.25" height=".25" style="fill:#e0e0e0;"></rect><rect x="378.35" y="417.56" width="43.19" height=".25" style="fill:#e0e0e0;"></rect><rect x="430.45" y="417.56" width="6.33" height=".25" style="fill:#e0e0e0;"></rect><rect x="316.21" y="423.79" width="53.89" height=".25" style="fill:#e0e0e0;"></rect></g><g><path d="M178.2,85.01c12.6-1.39,22.34-8.48,26.55-20.44,4.2-11.96,2.89-26.26-6.07-35.23-4.59-4.59-10.7-7.87-17.19-8.13-9.21-.37-17.98,5.56-22.5,13.6-4.52,8.04-6.09,16.27-4.44,25.34,1.63,8.99,6.93,19.98,19.3,24.32,0,0-4.03,6.78-2.19,7.83,1.84,1.05,4.16-2.84,4.16-2.84,0,0,4.07,5.34,4.57,2.84,.74-3.68-2.18-7.3-2.18-7.3Z" style="fill:#f5f5f5;"></path><g style="opacity:.3;"><path d="M161.85,56.02c-1.72,.26-3.43,.53-5.15,.79-1.08-5.75-.39-11.82,1.97-17.18,2.35-5.36,6.35-9.98,11.31-13.07,0,0-5.46,7.99-7.1,14.93-1.77,7.53-1.03,14.53-1.03,14.53Z" style="fill:#fff;"></path></g></g><g><path d="M334.59,106.11c9.97-7.43,14.7-18.26,12.32-30.46-2.38-12.21-10.58-23.65-22.62-26.79-6.16-1.61-12.96-1.34-18.57,1.65-7.98,4.26-12.45,13.63-12.28,22.67,.16,9.04,2.92,16.78,8.81,23.64,5.84,6.8,15.78,13.46,28.39,11,0,0-.04,7.74,2.03,7.72,2.07-.02,2.11-4.47,2.11-4.47,0,0,6.09,2.49,5.28,.14-1.2-3.48-5.46-5.1-5.46-5.1Z" style="fill:#ebebeb;"></path><g style="opacity:.3;"><path d="M306.37,89.69c-1.32,1.07-2.65,2.15-3.97,3.22-3.77-4.33-6.19-9.81-6.86-15.51s.42-11.59,3.09-16.67c0,0-.66,9.47,1.4,16.16,2.23,7.25,6.34,12.8,6.34,12.8Z" style="fill:#fff;"></path></g></g><g><path d="M101.92,138.49c9.45-4.56,15.1-12.77,15.08-23.26-.02-10.49-4.98-21.28-14.44-25.81-4.84-2.32-10.52-3.19-15.65-1.61-7.29,2.25-12.49,9.29-13.81,16.81-1.31,7.52-.27,14.37,3.51,20.99,3.75,6.56,10.91,13.68,21.75,13.66,0,0-1.27,6.4,.45,6.72,1.72,.32,2.46-3.36,2.46-3.36,0,0,4.65,3.04,4.35,.96-.44-3.07-3.71-5.1-3.71-5.1Z" style="fill:#ebebeb;"></path><g style="opacity:.3;"><path d="M81.18,120.37c-1.27,.68-2.53,1.36-3.8,2.03-2.43-4.19-3.56-9.12-3.2-13.94,.36-4.83,2.21-9.53,5.23-13.31,0,0-2.06,7.73-1.43,13.61,.69,6.36,3.2,11.62,3.2,11.62Z" style="fill:#fff;"></path></g></g><path d="M54.24,302.48c9.98,3.22,19.74,1.18,26.97-6.43,7.23-7.6,11.08-18.84,7.36-28.65-1.91-5.02-5.41-9.57-10.21-11.96-6.83-3.4-15.46-1.9-21.59,2.64-6.14,4.53-10.11,10.21-11.95,17.62-1.82,7.34-1.54,17.43,6.32,24.89,0,0-5.34,3.75-4.31,5.17,1.03,1.42,4.1-.73,4.1-.73,0,0,1.26,5.41,2.49,3.7,1.8-2.53,.83-6.25,.83-6.25Z" style="fill:#f5f5f5;"></path><g><path d="M427.1,312.8c9.98,3.22,19.74,1.18,26.97-6.43,7.23-7.6,11.08-18.84,7.36-28.65-1.91-5.02-5.41-9.57-10.21-11.96-6.83-3.4-15.46-1.9-21.59,2.64-6.14,4.53-10.11,10.21-11.95,17.62-1.82,7.34-1.54,17.43,6.32,24.89,0,0-5.34,3.75-4.31,5.17,1.03,1.42,4.1-.73,4.1-.73,0,0,1.26,5.41,2.49,3.7,1.8-2.53,.83-6.25,.83-6.25Z" style="fill:#ebebeb;"></path><g style="opacity:.3;"><path d="M424.59,285.37c-1.38-.38-2.77-.77-4.15-1.15,1.13-4.71,3.72-9.05,7.31-12.3,3.59-3.25,8.17-5.38,12.97-6.03,0,0-6.83,4.17-10.42,8.86-3.89,5.08-5.7,10.62-5.7,10.62Z" style="fill:#fff;"></path></g></g><g><path d="M256.19,425.76c8.75-5.78,13.25-14.67,11.84-25.07-1.42-10.39-7.78-20.43-17.76-23.65-5.11-1.65-10.85-1.75-15.72,.5-6.93,3.2-11.14,10.88-11.44,18.5-.3,7.62,1.65,14.28,6.29,20.34,4.59,6,12.64,12.1,23.38,10.63,0,0-.41,6.51,1.34,6.6,1.75,.08,1.99-3.66,1.99-3.66,0,0,5.01,2.39,4.44,.37-.85-2.99-4.36-4.55-4.36-4.55Z" style="fill:#ebebeb;"></path><g style="opacity:.3;"><path d="M233.21,410.58c-1.17,.84-2.33,1.68-3.5,2.52-2.96-3.83-4.74-8.56-5.03-13.39-.29-4.83,.91-9.74,3.4-13.89,0,0-1.01,7.94,.4,13.67,1.53,6.21,4.72,11.08,4.72,11.08Z" style="fill:#fff;"></path></g></g><g><path d="M307.76,346.94c-9.65,4.11-15.68,12.04-16.17,22.52-.48,10.48,3.96,21.49,13.2,26.47,4.73,2.54,10.36,3.68,15.55,2.35,7.39-1.9,12.92-8.69,14.59-16.14,1.67-7.45,.95-14.34-2.51-21.14-3.43-6.73-10.25-14.18-21.08-14.67,0,0,1.58-6.33-.13-6.73-1.7-.4-2.62,3.24-2.62,3.24,0,0-4.5-3.26-4.3-1.16,.29,3.09,3.46,5.27,3.46,5.27Z" style="fill:#ebebeb;"></path><g style="opacity:.3;"><path d="M327.62,366.02c1.3-.62,2.6-1.23,3.89-1.85,2.23,4.3,3.12,9.27,2.53,14.08-.59,4.8-2.66,9.42-5.85,13.05,0,0,2.43-7.63,2.07-13.52-.39-6.39-2.65-11.76-2.65-11.76Z" style="fill:#fff;"></path></g></g><g><path d="M431.95,98.89c10.43-1.15,18.49-7.01,21.97-16.91s2.4-21.73-5.02-29.15c-3.79-3.8-8.85-6.51-14.22-6.73-7.62-.31-14.88,4.6-18.62,11.25-3.74,6.65-5.04,13.46-3.68,20.96,1.35,7.44,5.73,16.53,15.96,20.12,0,0-3.33,5.61-1.82,6.48,1.52,.87,3.44-2.35,3.44-2.35,0,0,3.37,4.42,3.78,2.35,.61-3.05-1.8-6.04-1.8-6.04Z" style="fill:#f5f5f5;"></path><g style="opacity:.3;"><path d="M418.42,74.9c-1.42,.22-2.84,.43-4.26,.65-.89-4.76-.32-9.78,1.63-14.21s5.26-8.25,9.36-10.81c0,0-4.52,6.61-5.88,12.35-1.47,6.23-.85,12.02-.85,12.02Z" style="fill:#fff;"></path></g></g></g><g id="freepik--Shadow--inject-137"><path d="M460.44,457.34c0,3.39-93.52,6.13-208.87,6.13s-208.87-2.75-208.87-6.13,93.52-6.13,208.87-6.13,208.87,2.75,208.87,6.13Z" style="fill:#f5f5f5;"></path></g><g id="freepik--Plant--inject-137"><g><g><g><path d="M432.62,429.3c-.02-.5-1.69-49.87-9.72-57.68-7.81-7.59-16.78-.28-17.15,.03l-.81-.97c.1-.09,10.22-8.34,18.84,.03,8.39,8.16,10.03,56.49,10.1,58.54l-1.26,.04Z" style="fill:#263238;"></path><path d="M433.31,439c-.06-.59-5.49-59.28,15.94-83.87l.95,.82c-21.08,24.19-15.7,82.34-15.64,82.93l-1.25,.12Z" style="fill:#263238;"></path><path d="M432.52,432.79l-1.25-.08c.04-.67,4.19-66.72-11.53-81.18l.85-.93c16.16,14.87,12.11,79.44,11.93,82.19Z" style="fill:#263238;"></path><path d="M434.57,432.76h-1.26c.02-1.83,.52-44.63,12.68-51.59,2.7-1.55,5.35-1.81,7.87-.77,7.35,3.04,10.99,16.12,11.14,16.68l-1.21,.33c-.04-.13-3.63-13.04-10.41-15.85-2.14-.88-4.41-.65-6.76,.7-11.54,6.61-12.04,50.06-12.04,50.5Z" style="fill:#263238;"></path><path d="M429.83,432.79l-1.25-.07c.02-.34,1.83-33.82-7.2-45.62-2.19-2.86-4.57-4.22-7.08-4.04-5.92,.41-10.89,9.08-10.93,9.17l-1.09-.62c.22-.38,5.34-9.34,11.94-9.8,2.95-.21,5.7,1.32,8.16,4.53,9.32,12.17,7.54,45.06,7.46,46.45Z" style="fill:#263238;"></path><path d="M431.81,437.34c-.25-3.25-5.91-79.7,4.05-93.17l1.01,.75c-9.68,13.1-3.87,91.54-3.81,92.33l-1.25,.1Z" style="fill:#263238;"></path></g><path d="M458.36,384.62s-6.36,2.35-4.2,7.4c6.08,14.24,20.57,15.76,20.57,15.76,0,0,6.8-10.77,1.23-19.13-7.69-11.53-17.44-7.76-17.6-4.04Z" style="fill:#FF725E;"></path><path d="M430.58,378.25s6.36-.27,6.72,5.22c.36,5.48-13.78,20.65-13.78,20.65,0,0-10.09-3.65-7.93-17.33,2.17-13.68,13.41-11.91,14.99-8.54Z" style="fill:#FF725E;"></path><path d="M433.67,346.29s-2.67-.33-3.68-2.73c-3-7.17,7.3-14.91,21.08-10.82,0,0,.36,12.12-7.05,16.9-7.41,4.78-10.35-3.35-10.35-3.35Z" style="fill:#FF725E;"></path><path d="M410.06,383.88s2.22-3.04-1.13-3.34-17.85,6.2-14.04,21.08c0,0,18.66-6.08,19.3-12.31s-4.13-5.43-4.13-5.43Z" style="fill:#FF725E;"></path><path d="M449.84,351.61s.84-2.76,4-3.91c3.16-1.15,14.9-.43,15.06,14.93,0,0-18.06,3-20.29-2.85-2.23-5.85,1.23-8.16,1.23-8.16Z" style="fill:#FF725E;"></path><path d="M440.09,364.37s1.21-2.11,3.53-.98c2.32,1.13,9.16,8.16,2.64,16.66,0,0-12.12-7.29-11.13-12.4,.91-4.71,4.96-3.28,4.96-3.28Z" style="fill:#FF725E;"></path><path d="M410.4,368.08s1.75-2.29-.81-2.58c-2.56-.28-14.05,2.78-11.38,14.25,0,0,13.99-1.05,14.59-5.82,.6-4.76-2.41-5.86-2.41-5.86Z" style="fill:#FF725E;"></path><path d="M422.27,399.31c-.12,0-.23-.09-.25-.21-1-7.13,2.37-15.59,8.39-21.04,.1-.09,.26-.09,.35,.02,.09,.1,.08,.26-.02,.35-5.9,5.34-9.21,13.62-8.23,20.6,.02,.14-.08,.26-.21,.28-.01,0-.02,0-.04,0Z" style="opacity:.3;"></path><path d="M445.79,375.67c-.12,0-.22-.08-.25-.2-.78-3.94-2.79-7.66-5.63-10.49-.1-.1-.1-.26,0-.35,.1-.1,.26-.1,.35,0,2.92,2.9,4.97,6.72,5.77,10.75,.03,.14-.06,.27-.2,.29-.02,0-.03,0-.05,0Z" style="opacity:.3;"></path><path d="M472.33,398.53c-.09,0-.18-.05-.22-.14-2.79-5.73-8.23-11.05-13.84-13.54-.13-.06-.18-.2-.13-.33s.2-.18,.33-.13c5.72,2.54,11.25,7.95,14.09,13.78,.06,.12,0,.27-.12,.33-.04,.02-.07,.03-.11,.03Z" style="opacity:.3;"></path><path d="M465.52,358.84c-.08,0-.16-.04-.21-.12-1.63-2.59-4.11-4.62-6.97-5.71-3.03-1.16-5.58-1.98-8.44-1.16-.14,.04-.27-.04-.31-.17-.04-.13,.04-.27,.17-.31,3-.86,5.63-.02,8.75,1.17,2.96,1.13,5.52,3.23,7.22,5.91,.07,.12,.04,.27-.08,.35-.04,.03-.09,.04-.13,.04Z" style="opacity:.3;"></path><path d="M424.51,354.2s4.24,.51,4.48-2.09c.25-2.59-14-12.69-25.7-4.34,0,0,3.6,11.58,12.16,13.69,8.56,2.11,9.05-7.25,9.05-7.25Z" style="fill:#FF725E;"></path><path d="M424.38,354.66c-.08,0-.15-.04-.2-.1-4.27-5.74-15.1-7.85-18.83-6.5-.13,.04-.27-.02-.32-.15-.05-.13,.02-.27,.15-.32,3.79-1.37,14.84,.54,19.4,6.67,.08,.11,.06,.27-.05,.35-.04,.03-.1,.05-.15,.05Z" style="opacity:.3;"></path><path d="M400.99,375.53s-.09-.01-.13-.04c-.12-.07-.16-.23-.08-.34,2.41-3.95,7.09-6.14,9.66-7.1,.13-.05,.27,.02,.32,.15,.05,.13-.02,.27-.15,.32-2.52,.93-7.08,3.07-9.41,6.89-.05,.08-.13,.12-.21,.12Z" style="opacity:.3;"></path><path d="M396.88,396.22s-.08,0-.12-.03c-.12-.06-.17-.21-.11-.34,2.89-5.54,7.65-9.94,13.4-12.39,.12-.05,.27,0,.33,.13,.05,.13,0,.27-.13,.33-5.56,2.37-10.36,6.8-13.15,12.16-.04,.09-.13,.13-.22,.13Z" style="opacity:.3;"></path><path d="M434.23,346.25s-.07,0-.11-.02c-.12-.06-.18-.21-.12-.33,2.29-4.89,6.73-8.78,11.87-10.41,.13-.04,.27,.03,.31,.16,.04,.13-.03,.27-.16,.31-5.01,1.59-9.34,5.38-11.57,10.15-.04,.09-.13,.14-.23,.14Z" style="opacity:.3;"></path></g><g><polygon points="448.84 455.11 418.07 455.11 414.75 421.42 452.16 421.42 448.84 455.11" style="fill:#263238;"></polygon><rect x="413.11" y="417.7" width="40.7" height="7.43" style="fill:#263238;"></rect><polygon points="415.2 425.04 415.64 430.01 451.42 430.01 451.91 425.04 415.2 425.04" style="opacity:.3;"></polygon></g></g></g><g id="freepik--Letter--inject-137"><g><polygon points="137.24 228.75 251.2 149.37 365.17 228.75 253.63 317.07 137.24 228.75" style="fill:#263238;"></polygon><rect x="148.87" y="103.51" width="204.68" height="199.44" style="fill:#FF725E;"></rect><rect x="148.87" y="103.51" width="204.68" height="199.44" style="fill:#fff; opacity:.8;"></rect><polygon points="148.87 231.16 251.2 282.69 353.54 231.16 350.77 268.61 243.7 310.64 146.97 241.95 148.87 231.16" style="fill:#263238; opacity:.2;"></polygon><g><rect x="170.2" y="234.48" width="73.5" height="4.18" style="fill:#263238;"></rect><rect x="170.2" y="234.48" width="73.5" height="4.18" style="fill:#fff; opacity:.7;"></rect></g><g><rect x="248.75" y="234.48" width="94.03" height="4.18" style="fill:#263238;"></rect><rect x="248.75" y="234.48" width="94.03" height="4.18" style="fill:#fff; opacity:.7;"></rect></g><g><rect x="180.48" y="254.71" width="148.69" height="4.18" style="fill:#263238;"></rect><rect x="180.48" y="254.71" width="148.69" height="4.18" style="fill:#fff; opacity:.7;"></rect></g><g><rect x="195.78" y="264.83" width="117.9" height="4.18" style="fill:#263238;"></rect><rect x="195.78" y="264.83" width="117.9" height="4.18" style="fill:#fff; opacity:.7;"></rect></g><g><rect x="196.8" y="275.09" width="117.9" height="4.18" style="fill:#263238;"></rect><rect x="196.8" y="275.09" width="117.9" height="4.18" style="fill:#fff; opacity:.7;"></rect></g><g><rect x="170.2" y="244.59" width="107.88" height="4.18" style="fill:#263238;"></rect><rect x="170.2" y="244.59" width="107.88" height="4.18" style="fill:#fff; opacity:.7;"></rect></g><g><rect x="282.15" y="244.59" width="47.01" height="4.18" style="fill:#263238;"></rect><rect x="282.15" y="244.59" width="47.01" height="4.18" style="fill:#fff; opacity:.7;"></rect></g><polygon points="137.24 370.25 137.24 228.75 250.65 289.31 365.17 228.75 365.17 370.25 137.24 370.25" style="fill:#FF725E;"></polygon><g><path d="M131.71,264.47v83.08c0,.97,1.5,.97,1.5,0v-83.08c0-.97-1.5-.97-1.5,0h0Z" style="fill:#FF725E;"></path><path d="M133.29,261.24v-5.96c0-.97-1.5-.97-1.5,0v5.96c0,.97,1.5,.97,1.5,0h0Z" style="fill:#FF725E;"></path></g><polygon points="364.88 370.65 250.66 289.93 137.53 370.65 136.95 369.84 250.65 288.7 365.46 369.84 364.88 370.65" style="fill:#263238; opacity:.2;"></polygon><circle cx="186.03" cy="137.16" r="11.93" transform="translate(-30.9 216.91) rotate(-56.59)" style="fill:#FF725E;"></circle><rect x="209.41" y="130.42" width="39.64" height="4.18" style="fill:#FF725E;"></rect><rect x="209.19" y="138.57" width="109.65" height="4.18" style="fill:#263238;"></rect><rect x="209.19" y="138.57" width="109.65" height="4.18" style="fill:#fff; opacity:.7;"></rect><rect x="169.92" y="165.05" width="55.95" height="4.18" style="fill:#263238;"></rect><rect x="169.92" y="165.05" width="55.95" height="4.18" style="fill:#fff; opacity:.7;"></rect><g><rect x="169.43" y="176.36" width="83.95" height="4.18" style="fill:#263238;"></rect><rect x="169.43" y="176.36" width="83.95" height="4.18" style="fill:#fff; opacity:.7;"></rect></g><g><rect x="251.56" y="186.11" width="83.95" height="4.18" style="fill:#263238;"></rect><rect x="251.56" y="186.11" width="83.95" height="4.18" style="fill:#fff; opacity:.7;"></rect></g><g><rect x="170.2" y="186.11" width="73.5" height="4.18" style="fill:#263238;"></rect><rect x="170.2" y="186.11" width="73.5" height="4.18" style="fill:#fff; opacity:.7;"></rect></g><g><rect x="260.86" y="176.36" width="20.19" height="4.18" style="fill:#263238;"></rect><rect x="260.86" y="176.36" width="20.19" height="4.18" style="fill:#fff; opacity:.7;"></rect></g><g><rect x="286.6" y="176.36" width="48.91" height="4.18" style="fill:#263238;"></rect><rect x="286.6" y="176.36" width="48.91" height="4.18" style="fill:#fff; opacity:.7;"></rect></g><g><path d="M194.13,218.32h-8.15l-1.56,3.76h-4.17l7.83-17.56h4.02l7.85,17.56h-4.27l-1.56-3.76Zm-1.28-3.09l-2.79-6.72-2.79,6.72h5.57Z" style="fill:#FF725E;"></path><path d="M201.78,204.52h7.98c1.91,0,3.59,.36,5.06,1.09,1.46,.73,2.6,1.75,3.41,3.07,.81,1.32,1.22,2.86,1.22,4.62s-.41,3.3-1.22,4.62c-.81,1.32-1.95,2.35-3.41,3.07-1.46,.73-3.15,1.09-5.06,1.09h-7.98v-17.56Zm7.78,14.23c1.76,0,3.16-.49,4.2-1.47,1.05-.98,1.57-2.3,1.57-3.98s-.52-3-1.57-3.98-2.45-1.47-4.2-1.47h-3.71v10.89h3.71Z" style="fill:#FF725E;"></path><path d="M238.49,222.08l-.02-10.54-5.17,8.68h-1.83l-5.14-8.46v10.31h-3.81v-17.56h3.36l6.57,10.91,6.47-10.91h3.34l.05,17.56h-3.81Z" style="fill:#FF725E;"></path><path d="M246.47,204.52h4.06v17.56h-4.06v-17.56Z" style="fill:#FF725E;"></path><path d="M258.34,207.83h-5.62v-3.31h15.31v3.31h-5.62v14.25h-4.06v-14.25Z" style="fill:#FF725E;"></path><path d="M274.1,207.83h-5.62v-3.31h15.31v3.31h-5.62v14.25h-4.06v-14.25Z" style="fill:#FF725E;"></path><path d="M299.57,218.82v3.26h-13.6v-17.56h13.27v3.26h-9.23v3.81h8.16v3.16h-8.16v4.06h9.56Z" style="fill:#FF725E;"></path><path d="M302.81,204.52h7.98c1.91,0,3.59,.36,5.06,1.09,1.46,.73,2.6,1.75,3.41,3.07,.81,1.32,1.22,2.86,1.22,4.62s-.41,3.3-1.22,4.62c-.81,1.32-1.95,2.35-3.41,3.07-1.46,.73-3.15,1.09-5.06,1.09h-7.98v-17.56Zm7.78,14.23c1.76,0,3.16-.49,4.2-1.47,1.05-.98,1.57-2.3,1.57-3.98s-.52-3-1.57-3.98c-1.05-.98-2.45-1.47-4.2-1.47h-3.71v10.89h3.71Z" style="fill:#FF725E;"></path></g></g></g><g id="freepik--Confetti--inject-137"><g><path d="M43.8,181.03l3.19-1.2s-.83,3.38,3.72,4.35l-2.89,2.08s-3.89-1.45-4.01-5.23Z" style="fill:#FF725E;"></path><path d="M222.09,81.7l.98,3.26s-3.32-1.05-4.59,3.42l-1.88-3.02s1.71-3.79,5.49-3.65Z" style="fill:#FF725E;"></path><path d="M124.79,123.64l.28-2.34s1.81,1.58,3.85-.9l.36,2.44s-2.13,1.93-4.49,.8Z" style="fill:#FF725E;"></path><path d="M116.37,55.63l.28-2.34s1.81,1.58,3.85-.9l.36,2.44s-2.13,1.93-4.49,.8Z" style="fill:#FF725E;"></path><path d="M244.32,50.63l.28-2.34s1.81,1.58,3.85-.9l.36,2.44s-2.13,1.93-4.49,.8Z" style="fill:#FF725E;"></path><g><path d="M88.07,85.15l.4-3.38s2.62,2.29,5.57-1.3l.52,3.52s-3.08,2.79-6.49,1.16Z" style="fill:#FF725E;"></path><path d="M88.07,85.15l.4-3.38s2.62,2.29,5.57-1.3l.52,3.52s-3.08,2.79-6.49,1.16Z" style="fill:#fff; opacity:.7;"></path></g><g><path d="M138.03,87.15l3.01-1.59s-.4,3.46,4.23,3.85l-2.61,2.43s-4.05-.95-4.64-4.69Z" style="fill:#FF725E;"></path><path d="M138.03,87.15l3.01-1.59s-.4,3.46,4.23,3.85l-2.61,2.43s-4.05-.95-4.64-4.69Z" style="fill:#fff; opacity:.7;"></path></g><g><path d="M264.28,77.01l3.01-1.59s-.4,3.46,4.23,3.85l-2.61,2.43s-4.05-.95-4.64-4.69Z" style="fill:#FF725E;"></path><path d="M264.28,77.01l3.01-1.59s-.4,3.46,4.23,3.85l-2.61,2.43s-4.05-.95-4.64-4.69Z" style="fill:#fff; opacity:.7;"></path></g><path d="M383.64,115.52l.98,3.26s-3.32-1.05-4.59,3.42l-1.88-3.02s1.71-3.79,5.49-3.65Z" style="fill:#FF725E;"></path><path d="M410.06,151.38l-.3-3.39s3.03,1.7,5.19-2.42l1.23,3.34s-2.44,3.36-6.12,2.46Z" style="fill:#FF725E;"></path><path d="M460.29,266.47l-.3-3.39s3.03,1.7,5.19-2.42l1.23,3.34s-2.44,3.36-6.12,2.46Z" style="fill:#FF725E;"></path><path d="M38.58,289.31l-.3-3.39s3.03,1.7,5.19-2.42l1.23,3.34s-2.44,3.36-6.12,2.46Z" style="fill:#FF725E;"></path><path d="M408.84,79.03l.28-2.34s1.81,1.58,3.85-.9l.36,2.44s-2.13,1.93-4.49,.8Z" style="fill:#FF725E;"></path><path d="M317.78,84.94l.28-2.34s1.81,1.58,3.85-.9l.36,2.44s-2.13,1.93-4.49,.8Z" style="fill:#FF725E;"></path><g><path d="M431.04,102.2l3.01-1.59s-.4,3.46,4.23,3.85l-2.61,2.43s-4.05-.95-4.64-4.69Z" style="fill:#FF725E;"></path><path d="M431.04,102.2l3.01-1.59s-.4,3.46,4.23,3.85l-2.61,2.43s-4.05-.95-4.64-4.69Z" style="fill:#fff; opacity:.7;"></path></g><g><path d="M455.24,147.74l3.01-1.59s-.4,3.46,4.23,3.85l-2.61,2.43s-4.05-.95-4.64-4.69Z" style="fill:#FF725E;"></path><path d="M455.24,147.74l3.01-1.59s-.4,3.46,4.23,3.85l-2.61,2.43s-4.05-.95-4.64-4.69Z" style="fill:#fff; opacity:.7;"></path></g><g><path d="M434.67,301.41l3.01-1.59s-.4,3.46,4.23,3.85l-2.61,2.43s-4.05-.95-4.64-4.69Z" style="fill:#FF725E;"></path><path d="M434.67,301.41l3.01-1.59s-.4,3.46,4.23,3.85l-2.61,2.43s-4.05-.95-4.64-4.69Z" style="fill:#fff; opacity:.7;"></path></g><g><path d="M47.69,330.05l3.01-1.59s-.4,3.46,4.23,3.85l-2.61,2.43s-4.05-.95-4.64-4.69Z" style="fill:#FF725E;"></path><path d="M47.69,330.05l3.01-1.59s-.4,3.46,4.23,3.85l-2.61,2.43s-4.05-.95-4.64-4.69Z" style="fill:#fff; opacity:.7;"></path></g><g><path d="M366.51,82.54l.97-3.26s2.19,2.7,5.71-.33l-.09,3.56s-3.51,2.22-6.6,.03Z" style="fill:#FF725E;"></path><path d="M366.51,82.54l.97-3.26s2.19,2.7,5.71-.33l-.09,3.56s-3.51,2.22-6.6,.03Z" style="fill:#fff; opacity:.7;"></path></g><g><path d="M326.16,48.22l.97-3.26s2.19,2.7,5.71-.33l-.09,3.56s-3.51,2.22-6.6,.03Z" style="fill:#FF725E;"></path><path d="M326.16,48.22l.97-3.26s2.19,2.7,5.71-.33l-.09,3.56s-3.51,2.22-6.6,.03Z" style="fill:#fff; opacity:.7;"></path></g></g></g><g id="freepik--Speech_Bubble--inject-137"><g><g><path d="M46.52,123.13c-1.02-10.84,6.95-20.46,17.79-21.47,10.84-1.02,20.46,6.95,21.47,17.79,.78,8.37-3.8,15.99-10.91,19.5l-1.58,5.71-4.98-3.79c-.11,.01-.21,.04-.32,.05-10.84,1.02-20.46-6.95-21.47-17.79Z" style="fill:#FF725E;"></path><path d="M46.21,111.97s-.06,0-.09-.02c-.13-.05-.19-.19-.15-.32,2.28-6.05,7.85-10.82,14.18-12.15,.13-.03,.27,.06,.3,.19,.03,.13-.06,.27-.19,.3-6.17,1.3-11.59,5.95-13.82,11.84-.04,.1-.13,.16-.23,.16Z" style="fill:#FF725E;"></path><path d="M44.61,117.6h0c-.14,0-.25-.12-.24-.26,.02-1.01,.26-2.02,.68-2.94,.06-.13,.21-.18,.33-.12,.12,.06,.18,.21,.12,.33-.4,.85-.62,1.8-.64,2.74,0,.14-.11,.24-.25,.24Z" style="fill:#FF725E;"></path></g><path d="M66.15,131.79c-.74,0-1.36-.24-1.86-.72-.5-.48-.75-1.06-.75-1.75s.24-1.26,.73-1.72c.49-.46,1.11-.69,1.87-.69s1.38,.23,1.87,.69c.49,.46,.73,1.04,.73,1.72s-.25,1.27-.75,1.75c-.5,.48-1.12,.72-1.86,.72Zm1.68-6.81h-3.36l-.84-12.39h5.04l-.84,12.39Z" style="fill:#fff;"></path></g></g><g id="freepik--Character_2--inject-137"><g><g><path d="M452.71,204.71c-.02-2.39-1.72-4.79-4.08-5.2,2.09-.79,4.08-2.24,4.83-4.35,.74-2.11-.21-4.87-2.34-5.53-1.76-.55-3.61,.38-5.24,1.24-2.45,1.28-5.22,2.49-7.9,1.83-2.85-.7-4.8-3.32-6.12-5.94-1.32-2.62-2.32-5.49-4.37-7.6-2.04-2.11-5.6-3.17-7.92-1.36l-1.54,8.72c.63,7.37,1.99,15.11,6.99,20.56,5.17,5.64,10.41,7.28,17.73,6.18,2.37-.36,4.74-1.05,6.66-2.48,1.92-1.43,3.33-3.68,3.31-6.07Z" style="fill:#263238;"></path><path d="M419.56,177.79c.56,.47,8.79,5.24,5.35,12.68-3.44,7.44-5.43,5.56-5.43,5.56l.09-18.24Z"></path><path d="M393.93,211.37c1.56-.68,2.15-1.47,2.57-3.18,.34-1.31,.45-2.77,.47-4.23l2.39-1.16,11.9-4.76c-2.63,5.49-7.68,14.02-4.64,18.95,0,0,4.32,4.43,6.35,6.01-1.91,.54-22.01,10.46-30.08,6.15-7.33-3.92,1.57-17.13,3.74-18.8,2.45,.27,5.06,.6,7.3,1.02Z" style="fill:#e9b376;"></path><path d="M396.2,208.91c2.62,.38,6.7,.12,8.36-2.39,.68-1.03,1.14-2.14,1.37-2.91l-8.91,1.68c-.33,1.1-.06,2.15-.82,3.62Z" style="opacity:.2;"></path><path d="M418.26,190.43c-4.51,8.14-6.24,11.68-12.58,14.2-9.53,3.79-18.67-2.92-16.72-12.09,1.76-8.26,8.84-20.19,18.74-20.09,9.75,.1,15.07,9.84,10.56,17.99Z" style="fill:#e9b376;"></path><path d="M405.12,188.52c-.33,.81-1.06,1.31-1.65,1.12-.58-.19-.79-.99-.46-1.79,.33-.81,1.06-1.31,1.64-1.12,.58,.19,.79,.99,.46,1.79Z" style="fill:#263238;"></path><path d="M408.62,186.6c-.11-.04-.21-.12-.26-.23-.76-1.79-2.41-2.03-2.43-2.03-.25-.03-.41-.26-.36-.5,.05-.24,.29-.41,.54-.38,.09,.01,2.17,.31,3.11,2.54,.09,.22-.02,.49-.26,.59-.11,.05-.24,.05-.34,.02Z" style="fill:#263238;"></path><path d="M397.02,179.3c-.09-.07-.14-.17-.15-.29-.02-.24,.18-.45,.43-.47,2.59-.18,3.92,1.4,3.98,1.47,.16,.19,.12,.46-.09,.61-.21,.15-.5,.11-.66-.08-.05-.06-1.1-1.27-3.16-1.13-.13,0-.26-.03-.35-.11Z" style="fill:#263238;"></path><path d="M400.15,185.24s-2.73,2.59-5.09,3.91c-.41,.23-.47,.81-.13,1.14,.88,.85,2.26,1.04,2.26,1.04l2.97-6.09Z" style="fill:#d58745;"></path><path d="M404.96,186.93l-1.85-1.17s.86,1.99,1.85,1.17Z" style="fill:#263238;"></path><path d="M397.39,185.09c-.33,.8-1.06,1.31-1.65,1.12-.58-.19-.79-.99-.46-1.79,.33-.8,1.06-1.31,1.64-1.12,.58,.19,.79,.99,.46,1.79Z" style="fill:#263238;"></path><path d="M397.11,183.34l-1.85-1.17s.86,1.99,1.85,1.17Z" style="fill:#263238;"></path><path d="M409.58,202.56c5.16-1.09,11.77-6.39,13.31-12.66,1.61-6.54-1.58-13.35-9.04-16.95-14.62-7.05-21.67,11.07-21.67,11.07,9.09-15.78,21.58-4.07,21.58-4.07-5.48,5.57-1.29,12.22-1.29,12.22,.33,5.38-2.89,10.38-2.89,10.38Z" style="fill:#263238;"></path><path d="M417.78,198.48c-1.77,1.3-3.88,1.68-5.54,1.39-2.49-.42-2.06-4.55-.31-6.46,1.58-1.72,4.38-2.09,6.37-.69,1.96,1.38,1.49,4.27-.53,5.76Z" style="fill:#e9b376;"></path><path d="M414.41,198.03c-.23,0-.48-.02-.75-.06-.14-.02-.23-.15-.21-.28,.02-.14,.14-.23,.28-.21,1.34,.2,2.15-.21,2.59-.59,.48-.41,.65-.9,.65-1.19,0-.58-.48-1.23-1.16-1.24-.14,0-.25-.11-.25-.25,0-.14,.11-.25,.25-.25h0c.99,.01,1.65,.91,1.65,1.74,0,.53-.32,1.12-.82,1.56-.43,.37-1.14,.76-2.24,.76Z" style="opacity:.2;"></path><path d="M423.13,187.35c.19-3.56-1.46-12.23-12.99-16.36-11.53-4.13-16.51,2.64-16.51,2.64,2.47-1.36,5.26-2.07,8.08-2.04-3.29,.46-6.19,2.42-7.82,5.32,.83-.89,4.03-.36,4.03-.36,1.31-1.18,2.8-2.15,4.41-2.86-1.68,.72-2.74,3.82-2.74,3.82l3.32,1.59c.79-1.88,2.2-3.44,3.99-4.41-1.19,1.61-1.86,3.56-1.91,5.56,.47-2.22,1.85-4.14,3.79-5.3-1.28,1.73-2.23,3.68-2.78,5.76,1.55,1.41,2.91,3.01,4.04,4.77,.43-2.38,1.65-4.54,3.45-6.15-3.38,5.33-.72,12.01-.72,12.01,0,0,10.17-.44,10.36-4Z" style="fill:#263238;"></path><g><path d="M398.81,194.91c.37,1.01,.68,2.88,.68,2.88,.17,0,.35,0,.52,0,2.36-.02,3.45-.81,3.95-1.67,.27-.48,.35-.98,.36-1.4,.02-.48-.07-.82-.07-.82-1.25,.76-3.45,.94-4.63,.99-.49,.03-.81,.02-.81,.02Z" style="fill:#263238;"></path><path d="M399.61,194.89l.22,.84c2.23-.02,3.79-.34,4.48-1.02,.02-.48-.07-.82-.07-.82-1.25,.76-3.45,.94-4.63,.99Z" style="fill:#fff;"></path><path d="M400,197.79c2.36-.02,3.45-.81,3.95-1.67-.8,.04-1.77,.17-2.62,.54-.65,.28-1.06,.71-1.33,1.14Z" style="fill:#c15854;"></path></g></g><g><path d="M368.95,209.8s-7.59-24.23-6.95-28.74c.64-4.51,11.91-26.78,11.91-26.78l6.78,3.53-8.39,24.02,10.63,23.37-13.98,4.6Z" style="fill:#e9b376;"></path><path d="M370.46,221.94c-.48-8.54-5.06-22.06-5.06-22.06l13.17-6.51s4.11,11.74,9.79,16.54c0,0-17.66,17.21-17.9,12.03Z" style="fill:#263238;"></path><path d="M369.43,163.62l4.48-9.34s-.49-2.16-.47-3.75c.02-1.6,.15-3.62,1.95-5.57,1.8-1.95,2.11,0,2.11,0,2.07-1.7,3.41,.18,3.41,.18,1.77-1.53,3.36,.34,3.36,.34,0,0,2.1,1.85,2.53,3.06,.42,1.21-1.57,5.38-1.57,5.38l-4.17,3.14-3.5,9.71c-.17-.07-8.12-3.15-8.12-3.15Z" style="fill:#e9b376;"></path><path d="M378.78,152.53c1.11-1.11,2.64-1.66,4.2-1.53,.1,0,.19-.08,.22-.17,.24-.82,.49-1.65,.73-2.47,.03-.1-.02-.2-.1-.25-.8-.47-1.93-1.22-1.45-2.3,0,0,.03-.02,.02-.02,.08,0,.16,.02,.27,.06,.44,.18,.85,.49,1.23,.77,.89,.65,1.73,1.35,2.57,2.06,.22,.18,.54-.13,.32-.32-.79-.66-1.59-1.32-2.42-1.95-.44-.33-.89-.67-1.38-.91-.46-.22-.92-.25-1.11,.3-.43,1.25,.8,2.14,1.72,2.69l-.1-.25c-.24,.82-.49,1.65-.73,2.47l.22-.17c-1.67-.14-3.33,.48-4.52,1.66-.21,.2,.11,.52,.32,.32h0Z" style="opacity:.3;"></path><path d="M374.09,147.04c-.23,.41-.23,.9-.02,1.31s.66,.67,1.13,.69,.9-.22,1.18-.61c.29-.4,.42-.91,.61-1.37,.25-.62,.57-1.22,.93-1.79,.15-.25-.23-.47-.39-.23-.34,.54-.64,1.11-.89,1.7-.2,.48-.33,1.04-.65,1.46-.28,.37-.79,.5-1.21,.26s-.54-.8-.31-1.21c.14-.25-.25-.48-.39-.23h0Z" style="opacity:.3;"></path><path d="M376.6,148.01c.14,.62,.5,1.23,1.07,1.53,.51,.26,1.18,.26,1.66-.08,.57-.41,.66-1.18,.9-1.79,.28-.73,.68-1.43,1.16-2.05,.18-.23-.14-.55-.32-.32-.4,.52-.75,1.07-1.03,1.66-.13,.29-.25,.58-.36,.88s-.17,.63-.33,.92c-.27,.48-.85,.63-1.35,.44-.55-.21-.86-.76-.98-1.31-.06-.28-.5-.16-.43,.12h0Z" style="opacity:.3;"></path><path d="M380.1,148.61c.24,.64,.82,1.09,1.5,1.16s1.36-.34,1.67-.94c.13-.26-.25-.48-.39-.23-.24,.46-.73,.75-1.24,.72-.48-.03-.94-.38-1.11-.83-.04-.11-.15-.19-.28-.16-.11,.03-.2,.16-.16,.28h0Z" style="opacity:.3;"></path></g><path d="M409.07,216.92c-5.63,4.54-21.33,5.27-21.33,5.27-1.12-6.41,.47-9.95,2.56-11.88l1.06,.25c5.36,1.47,10.6,3.33,15.69,5.56,.64,.26,1.32,.56,2.03,.8Z" style="fill:#e9b376;"></path><g><polygon points="358.1 260.44 404.44 273.34 407.37 266.6 383.65 253.55 361.22 254 358.1 260.44" style="fill:#263238;"></polygon><polygon points="358.1 260.44 404.44 273.34 407.37 266.6 383.65 253.55 361.22 254 358.1 260.44" style="isolation:isolate; opacity:.2;"></polygon><path d="M391.36,210.54c5.35,1.48,10.6,3.33,15.69,5.56,4.79,2,9.42,4.35,13.86,7.03-16.83,26.52-19.76,35.24-24.1,49.51-6.66-2.34-21.34-2.63-35.06-7.43,4.17-38.7,18.36-55.18,18.36-55.18,3.74-.71,7.59-.53,11.25,.52Z" style="fill:#e9b376;"></path><path d="M403.17,269.06c-3.01-6.26-16.78-9.35-27.43-11.28-10.65-1.93-17.65,2.66-17.65,2.66l1.74-6.17c1.27-4.55,3.26-11.53,7.39-25.1,1.66-5.45,4.48-11.8,7.56-15.28,1.1-2.07,2.48-3.99,4.09-5.7,2.85-2.75,5.16-2.81,10.04,1.91,0,0-.01,4.47,4.45,6.86,6.68,3.57,15.34-.83,15.34-.83,0,0,9.3,4.41,11.81,7.02,1.05,1.1-.96,5.07-4.27,11.27-.08,.13-.2,.26-.21,.39-1.81,3.31-6.6,11.14-8.93,15.64-4.14,7.85,9.07,16.8-2.67,22.9l-1.27-4.27Z" style="fill:#263238;"></path></g><path d="M410.89,234.27c.28-.98,.5-1.54,.5-1.54,1.87,.03,3.69,.63,5.22,1.7h0c-.08,.13-.2,.26-.21,.39-1.81,3.31-4.43,6.51-6.75,11.01-.66-4.13,.04-7.57,1.25-11.57Z" style="isolation:isolate; opacity:.2;"></path><g><path d="M436.38,238.47c-.7,1.69-.98,3.93-1.4,5.98-5.21-5.22-9.46-12.12-13-18.45l-12.29,6.04v.03c5.35,10.45,12.43,20.22,22.7,26.36,3.71,2.23,8.52,1.03,10.75-2.68,.07-.12,.14-.23,.2-.35,2.53-4.24,2.27-5.72,3.08-9.92l-10.04-7.02Z" style="fill:#e9b376;"></path><path d="M409.46,233.29c-.85,4.93,6.92,13.53,6.92,13.53l12.63-12.11s-5.4-10.4-8.88-12.01c-3.95-1.87-9.81,5.67-10.66,10.6Z" style="fill:#263238;"></path><polygon points="456.2 210.02 456.45 231 426.93 239.54 427.84 216.6 453.5 209.2 456.2 210.02" style="fill:#FF725E;"></polygon><polygon points="456.2 210.02 456.45 231 426.93 239.54 427.84 216.6 453.5 209.2 456.2 210.02" style="isolation:isolate; opacity:.2;"></polygon><polygon points="437.17 217.96 434.51 239.84 428.78 237.58 428.88 217.64 437.17 217.96" style="fill:#FF725E;"></polygon><polygon points="437.17 217.96 434.51 239.84 428.78 237.58 428.88 217.64 437.17 217.96" style="fill:#fff; isolation:isolate; opacity:.7;"></polygon><polygon points="453.5 209.2 456.2 210.02 458.34 232.34 431.55 240.38 431.57 218.85 427.84 216.6 453.5 209.2" style="fill:#FF725E;"></polygon><path d="M438.79,233.38l.5-10.35s-1.29-1.8-1.89-3.28c-.6-1.48-1.27-3.39-.36-5.89,.91-2.49,1.94-.83,1.94-.83,1.25-2.38,3.21-1.15,3.21-1.15,1.04-2.1,3.23-.99,3.23-.99,0,0,2.66,.89,3.52,1.84,.86,.95,.64,5.57,.64,5.57l-2.62,4.52,.14,10.32c-.18,0-8.31,.24-8.31,.24Z" style="fill:#e9b376;"></path><path d="M434.99,244.45l4.3-21.42,7.69,.22s1.01,24.15-2.51,30.06c-3.52,5.91-6.31,1.69-6.31,1.69l-3.17-10.55Z" style="fill:#e9b376;"></path></g><g><polygon points="383.34 445.73 374.57 447.56 365.57 425.82 378.9 422.89 383.34 445.73" style="fill:#e9b376;"></polygon><g><path d="M372.63,444.56l3.03-.98c.69-.22,1.43-.08,2.02,.34,2.52,1.82,3.54,.49,4.72-2.37,1.16-.53,1.94,.75,2.16,1.09l4.93,7.51c.42,.62,.25,1.47-.37,1.89-.11,.07-.23,.13-.36,.17-3.68,1.19-5.42,1.75-10,3.24l-14.01,4.53c-3.82,1.24-5.86-2.36-4.4-3.22,6.57-3.85,10.9-7.56,12.42-10.32,.29-.49-.21-.63-.14-1.88Z" style="fill:#263238;"></path><path d="M369.02,448.83c.95-.33,1.86-.76,2.72-1.28,.08-.06,.09-.17,.03-.25-.03-.04-.08-.07-.13-.07-.49-.07-4.85-.61-5.59,.37-.14,.17-.17,.41-.07,.61,.13,.39,.44,.7,.83,.82,.74,.17,1.51,.1,2.21-.2Zm2.05-1.32c-1.05,.57-3.04,1.52-4.11,1.15-.28-.1-.5-.32-.61-.6-.05-.08-.04-.19,.03-.26,.41-.54,2.89-.48,4.69-.29Z" style="fill:#FF725E;"></path><path d="M371.7,447.57s.08-.01,.12-.04c.04-.06,.03-.14,0-.19-.05-.16-2.15-3.6-4.15-2.69-.49,.24-.56,.53-.51,.75,.19,1.03,3.18,2.13,4.47,2.24l.08-.06Zm-3.73-2.69c1.32-.43,2.78,1.5,3.32,2.29-1.45-.25-3.68-1.25-3.77-1.88-.02-.05-.06-.19,.31-.35l.14-.05Z" style="fill:#FF725E;"></path><path d="M374.39,448.66c-.06,0-.11-.02-.16-.06-.8-.67-1.88-.96-2.91-.77-.13,.03-.27-.07-.29-.2s.07-.27,.2-.29c1.16-.21,2.4,.12,3.31,.88,.11,.09,.12,.25,.03,.35-.05,.06-.12,.09-.19,.09Z" style="fill:#FF725E;"></path><path d="M372.97,450.69c-.06,0-.11-.02-.16-.06-.8-.67-1.88-.95-2.91-.77-.14,.02-.27-.07-.29-.2-.02-.14,.07-.27,.2-.29,1.17-.21,2.41,.12,3.31,.88,.11,.09,.12,.25,.03,.35-.05,.06-.12,.09-.19,.09Z" style="fill:#FF725E;"></path><path d="M371.01,452.64c-.06,0-.11-.02-.16-.06-.8-.67-1.88-.95-2.91-.77-.13,.03-.27-.07-.29-.2-.02-.14,.07-.27,.2-.29,1.17-.21,2.41,.12,3.31,.88,.11,.09,.12,.25,.03,.35-.05,.06-.12,.09-.19,.09Z" style="fill:#FF725E;"></path></g><polygon points="371.69 440.6 372.45 442.45 382.16 439.63 381.72 437.4 371.69 440.6" style="opacity:.3;"></polygon></g><g><polygon points="452.7 390.64 447.05 397.6 426.35 386.42 434.83 375.73 452.7 390.64" style="fill:#e9b376;"></polygon><g><path d="M443.83,396.31l1.73-2.67c.39-.61,1.06-.97,1.78-1.01,3.1-.18,3.06-1.85,2.16-4.81,.57-1.15,1.97-.64,2.36-.52l8.57,2.71c.72,.22,1.13,.98,.91,1.7-.04,.13-.1,.25-.17,.36-2.1,3.25-3.1,4.78-5.71,8.83l-8,12.36c-2.18,3.37-6.03,1.87-5.44,.28,2.66-7.13,3.68-12.74,3.11-15.85-.09-.56-.56-.35-1.3-1.38Z" style="fill:#263238;"></path><path d="M443.73,401.9c.53-.86,.96-1.77,1.3-2.71,.02-.09-.04-.19-.13-.21-.05-.01-.11,0-.15,.03-.43,.26-4.15,2.59-4.1,3.81,0,.22,.13,.43,.33,.52,.35,.22,.78,.26,1.17,.11,.68-.33,1.24-.88,1.59-1.55Zm.76-2.32c-.45,1.11-1.4,3.1-2.46,3.49-.28,.1-.59,.07-.85-.08-.09-.04-.15-.12-.14-.22-.02-.67,1.94-2.2,3.45-3.19Z" style="fill:#FF725E;"></path><path d="M445.01,399.22s.06-.06,.07-.1c-.01-.07-.06-.13-.13-.15-.14-.09-3.94-1.43-4.92,.53-.23,.49-.1,.77,.07,.9,.8,.68,3.81-.36,4.88-1.09l.02-.1Zm-4.6,.27c.75-1.16,3.11-.59,4.02-.32-1.28,.72-3.64,1.36-4.11,.92-.04-.03-.17-.11,.02-.47l.07-.13Z" style="fill:#FF725E;"></path><path d="M444.69,399.75c-.06,0-.12-.02-.16-.06-.1-.09-.12-.25-.03-.35,.77-.9,1.92-1.41,3.12-1.41,.14,0,.25,.12,.25,.25,0,.14-.11,.25-.25,.25-.01,0-.03,0-.04,0-1.02,0-2.03,.46-2.7,1.24-.05,.06-.12,.09-.19,.09Z" style="fill:#FF725E;"></path><path d="M444.87,402.22c-.06,0-.12-.02-.16-.06-.1-.09-.12-.25-.03-.35,.77-.9,1.93-1.43,3.12-1.41,.14,0,.25,.12,.25,.25,0,.14-.11,.25-.25,.25-.02,0-.03,0-.04,0-1.02,0-2.03,.46-2.7,1.24-.05,.06-.12,.09-.19,.09Z" style="fill:#FF725E;"></path><path d="M444.58,404.97c-.06,0-.12-.02-.16-.06-.1-.09-.12-.25-.03-.35,.76-.89,1.91-1.41,3.08-1.41h.05c.14,0,.25,.12,.25,.25,0,.14-.11,.25-.25,.25-.01,0-.03,0-.04,0-1.02,0-2.03,.46-2.7,1.24-.05,.06-.12,.09-.19,.09Z" style="fill:#FF725E;"></path></g><polygon points="437.93 392.86 441.05 394.36 446.7 385.63 444.68 383.94 437.93 392.86" style="opacity:.3;"></polygon></g><g><path d="M388.56,266.27s-11.18,66.74-14.6,95.81l10.99,74.66-17.15,4.86s-21.1-58.32-19.62-85.61c-2.04-24.95,9.2-90.19,13.59-91.82l26.79,2.09Z" style="fill:#FF725E;"></path><path d="M388.56,266.27s-11.18,66.74-14.6,95.81l10.99,74.66-17.15,4.86s-21.1-58.32-19.62-85.61c-2.04-24.95,9.2-90.19,13.59-91.82l26.79,2.09Z" style="isolation:isolate; opacity:.2;"></path><path d="M383.49,289.06c-3.42,16.32-5.77,49.06-8.81,67.32-2.23-12.49-5.91-50,4.45-67.35,4.75-8.01,3.69-9.42,4.37,.02Z" style="isolation:isolate; opacity:.2;"></path><path d="M398.55,267.08s9.79,11.88,10.58,32.51c.66,17.21-6.45,39.85-4.86,53.14,16.51,3.99,40.49,31.13,40.49,31.13l-6.14,10.02s-51.88-20.77-57.23-33.63c-4.83-26.22-9.52-95.26-9.52-95.26l26.68,2.08Z" style="fill:#FF725E;"></path><path d="M398.55,267.08s9.79,11.88,10.58,32.51c.66,17.21-6.45,39.85-4.86,53.14,16.51,3.99,40.49,31.13,40.49,31.13l-6.14,10.02s-51.88-20.77-57.23-33.63c-4.83-26.22-9.52-95.26-9.52-95.26l26.68,2.08Z" style="isolation:isolate; opacity:.2;"></path></g></g></g><g id="freepik--Character_1--inject-137"><g><g><path d="M111.53,193.93l25.12-25.38,2.71-29.87,7.66,2.85s2.76,29.13,.72,32.41c-2.05,3.29-24.27,28.39-24.27,28.39l-11.93-8.39Z" style="fill:#895555;"></path><path d="M147.7,149.09l-.68-10.34s1.25-1.82,1.83-3.31c.58-1.49,1.21-3.42,.26-5.89-.95-2.48-1.96-.79-1.96-.79-1.29-2.35-3.23-1.1-3.23-1.1-1.07-2.08-3.25-.94-3.25-.94,0,0-2.64,.93-3.49,1.9-.85,.97-.55,5.58-.55,5.58l2.7,4.47-.36,10.32c.18,0,8.71,.1,8.71,.1Z" style="fill:#895555;"></path><path d="M143.56,135.11c-.66-1.54-1.99-2.72-3.58-3.21l.17,.22c.08-.86,.16-1.71,.24-2.57l-.17,.22c.96-.15,2.07-.4,2.47-1.41,.11-.27,.18-.7-.04-.95-.16-.17-.42-.2-.64-.19-.47,0-.95,.13-1.41,.25-1.11,.28-2.2,.63-3.29,.99-.27,.09-.16,.52,.12,.43,1.05-.34,2.11-.69,3.18-.96,.47-.12,.97-.26,1.46-.26,.12,0,.18,.01,.24,.05,0,0,.02,0,.02,.06,0-.05,0,.13,0,.17-.03,.3-.21,.57-.43,.77-.49,.44-1.19,.53-1.81,.63-.1,.02-.16,.13-.17,.22-.08,.86-.16,1.71-.24,2.57,0,.1,.08,.19,.17,.22,1.5,.46,2.7,1.56,3.32,3,.11,.27,.5,.04,.39-.23h0Z" style="opacity:.3;"></path><path d="M149.11,131.99c.05,.45-.21,.92-.67,1.03s-.94-.21-1.08-.67c-.15-.52-.05-1.11-.06-1.65-.02-.64-.09-1.27-.2-1.89-.05-.28-.49-.16-.43,.12,.14,.78,.2,1.57,.18,2.36-.01,.62-.05,1.32,.42,1.79,.39,.4,1.04,.52,1.54,.28s.82-.82,.75-1.37c-.03-.28-.48-.29-.45,0h0Z" style="opacity:.3;"></path><path d="M146.49,131.68c-.31,.45-.8,.82-1.36,.83-.52,0-1.02-.34-1.11-.87-.05-.3,0-.6,.03-.9,.02-.34,.03-.67,0-1.01-.03-.66-.15-1.32-.33-1.95-.08-.28-.51-.16-.43,.12,.22,.78,.33,1.58,.32,2.38,0,.68-.23,1.46,.22,2.06,.35,.46,.96,.68,1.53,.6,.64-.09,1.16-.51,1.51-1.03,.16-.24-.23-.46-.39-.23h0Z" style="opacity:.3;"></path><path d="M143.05,130.89c-.34,.37-.88,.53-1.36,.38s-.83-.6-.88-1.09c-.01-.12-.09-.23-.23-.23-.11,0-.24,.1-.23,.23,.07,.68,.52,1.29,1.17,1.51s1.39,.01,1.84-.48c.19-.21-.12-.53-.32-.32h0Z" style="opacity:.3;"></path></g><g><polygon points="177.65 435.81 167.85 410.17 184.81 405.27 190.1 436.98 177.65 435.81" style="fill:#FF725E;"></polygon><polygon points="177.65 435.81 167.85 410.17 184.81 405.27 190.1 436.98 177.65 435.81" style="fill:#fff; opacity:.7;"></polygon><g><path d="M179.66,449.25l7.09-.46s1.39-.81,2.24-.77c.85,.04,3.8,.38,3.8,.38l18.84-1.22c-.2-.73-.43-1.38-.68-1.95-.31-.7-.64-1.28-1.01-1.77-1.28-1.71-2.92-2.25-4.66-2.24-2.65,.02-11.29-4.65-11.29-4.65,0,0-3.08-.79-3.44-3.79-.14-1.12-2-2.39-2.85-2.45-1.74-.12-2.63,.96-2.77,2.6l-.17,1.9-4.02-.32s-4.17-1.65-3.86,.19c.18,1.05,1.17,5.73,1.85,9.45,.16,.87,.31,1.69,.43,2.41h0c.29,1.6,.49,2.7,.49,2.7Z" style="fill:#263238;"></path><g style="opacity:.7;"><path d="M211.64,447.18l-18.84,1.22s-2.96-.33-3.8-.38c-.85-.04-2.24,.77-2.24,.77l-7.09,.46s-.2-1.1-.49-2.69l31.78-1.33c.25,.57,.48,1.22,.68,1.95Z" style="fill:#fff;"></path></g><path d="M198.26,438.24c-.09-.07-.23-.07-.33,0-.45,.32-.81,.76-1.05,1.29-.12,.28,.32,.52,.44,.23,.21-.47,.53-.86,.92-1.14,.13-.09,.14-.27,.02-.37h0Z" style="fill:#fff;"></path><path d="M196.7,437.51c-.09-.07-.23-.07-.33,0-.45,.32-.81,.76-1.05,1.29-.12,.28,.32,.52,.44,.23,.21-.47,.53-.86,.92-1.14,.13-.09,.14-.27,.02-.37h0Z" style="fill:#fff;"></path><path d="M195.11,436.83c-.09-.07-.23-.07-.33,0-.45,.32-.81,.76-1.05,1.29-.12,.28,.32,.52,.44,.23,.21-.47,.53-.86,.92-1.14,.13-.09,.14-.27,.02-.37h0Z" style="fill:#fff;"></path></g><polygon points="169.48 414.69 185.52 409.58 186.08 412.89 170.84 417.98 169.48 414.69" style="fill:#FF725E;"></polygon><polygon points="171.17 419.1 186.26 413.96 186.46 415.15 171.73 420.54 171.17 419.1" style="fill:#FF725E;"></polygon></g><g><polygon points="83.89 441.54 83.96 414.09 101.54 415.61 95.09 447.1 83.89 441.54" style="fill:#FF725E;"></polygon><polygon points="83.89 441.54 83.96 414.09 101.54 415.61 95.09 447.1 83.89 441.54" style="fill:#fff; opacity:.7;"></polygon><g><path d="M81.63,454.53l9.21,1.16s1.49-.6,2.32-.43c.83,.17,3.71,.93,3.71,.93l18.47,1.63c-.09-.75-.22-1.43-.39-2.03-.2-.73-.45-1.36-.74-1.9-1.02-1.88-2.22-2.72-3.94-2.97-2.62-.37-10.49-6.25-10.49-6.25,0,0-2.93-1.24-2.84-4.26,.03-1.13-1.63-2.65-2.46-2.84-1.7-.38-2.74,.57-3.12,2.16l-.44,1.85-3.93-.91s-3.89-2.24-3.84-.37c.03,1.07-1.8,5.27-1.68,9.04,.03,.88,.05,1.71,.08,2.44h0c.05,1.62,.09,2.74,.09,2.74Z" style="fill:#263238;"></path><path d="M115.34,457.82l-18.47-1.63s-2.88-.76-3.71-.93c-.83-.17-2.32,.43-2.32,.43l-9.21-1.16s-.04-1.11-.09-2.74l33.41,3.99c.16,.6,.3,1.28,.39,2.03Z" style="fill:#fff; opacity:.7;"></path><path d="M103.76,446.94c-.08-.09-.21-.11-.32-.05-.49,.25-.92,.63-1.22,1.12-.16,.26,.24,.56,.4,.29,.27-.44,.65-.77,1.07-.99,.14-.07,.18-.25,.07-.37h0Z" style="fill:#fff;"></path><path d="M102.33,445.98c-.08-.09-.21-.11-.32-.05-.49,.25-.92,.63-1.22,1.12-.16,.26,.24,.56,.4,.29,.27-.44,.65-.77,1.07-.99,.14-.07,.18-.25,.07-.37h0Z" style="fill:#fff;"></path><path d="M100.85,445.08c-.08-.09-.21-.11-.32-.05-.49,.25-.92,.63-1.22,1.12-.16,.26,.24,.56,.4,.29,.27-.44,.65-.77,1.07-.99,.14-.07,.18-.25,.07-.37h0Z" style="fill:#fff;"></path></g><polygon points="83.86 418.89 100.65 419.89 99.99 423.17 83.94 422.45 83.86 418.89" style="fill:#FF725E;"></polygon><polygon points="83.84 423.61 99.77 424.23 99.53 425.42 83.85 425.16 83.84 423.61" style="fill:#FF725E;"></polygon></g><g><path d="M80.24,435.87l18.95-1.09s13.14-59.02,13.99-73.93c.85-14.91-.67-52.09-.67-52.09h0v.07c.73,.76,6.33,9.56,13.6,17.71,9.51,10.67,19.66,22.2,22.04,25.32,6.98,9.17,23.69,78.87,23.69,78.87l17.86-2.93s-11.08-72.99-14.25-82.06c-7.39-21.17-46.45-64.09-48.09-66.46-2.1-3.02-7.38-12.68-7.38-12.68l-46.37,8.46s-.36,7.06,.05,13.2c1.55,23.02,12.11,61.38,13.39,69.71-4.7,19.13-6.8,77.92-6.8,77.92Z" style="fill:#263238;"></path><path d="M115.54,304.52l-3.03,4.3c.6,1.06,10.59,15,13.19,17.1,.67-9.52-1.63-17.12-10.16-21.4Z" style="isolation:isolate; opacity:.2;"></path></g><g><path d="M97.12,212.39c2.43,3.54,6.24,7.4,13.93,3.61,5.17-2.55,12.09-9.99,21.55-17.96l-16.32-12c-5.73,4.8-7.57,7.16-15.25,13.86-10.07,10.42-3.9,12.5-3.9,12.5Z" style="fill:#FF725E;"></path><path d="M97.12,212.39c2.43,3.54,6.24,7.4,13.93,3.61,5.17-2.55,12.09-9.99,21.55-17.96l-16.32-12c-5.73,4.8-7.57,7.16-15.25,13.86-10.07,10.42-3.9,12.5-3.9,12.5Z" style="fill:#263238; opacity:.7;"></path></g><g><path d="M117.8,223.26c-1.42-4.82-3.44-10.79-5.11-15.57-1.79-5.14-6.09-8.8-11.54-8.71-8.35,.15-17.14,.16-31.22,3.93l-3.07,24.49,7.6,39.07s-.05,9.48-2.02,18.09c20.37,6.23,45.43,4.83,57.7-3.47,0,0-9.49-48.15-12.35-57.84Z" style="fill:#FF725E;"></path><path d="M78.46,200.99s6.38,7.04,15.78,4.91c9.4-2.13,7.23-6.92,7.23-6.92,0,0-.99,.02-2.55,.03-4.28,.03-13.23,.27-20.46,1.98Z" style="fill:#263238; opacity:.7;"></path><g><path d="M91.59,248.09l-10.61-10.93-5.66,23.8s4.34,8.36,4.46,7.93c.12-.43,11.81-20.79,11.81-20.79Z" style="fill:#263238;"></path><polygon points="90.3 248.4 81.11 239.24 76.12 238.38 75.87 258.6 81.79 262.23 90.3 248.4" style="fill:#FF725E;"></polygon><polygon points="90.3 248.4 81.11 239.24 76.12 238.38 75.87 258.6 81.79 262.23 90.3 248.4" style="fill:#fff; isolation:isolate; opacity:.7;"></polygon><polygon points="75.84 236.17 85.38 247.03 91.59 248.03 84.03 279.62 75.22 281.08 68.86 268.49 75.84 236.17" style="fill:#FF725E;"></polygon><polygon points="75.84 236.17 85.38 247.03 91.59 248.03 84.03 279.62 75.22 281.08 68.86 268.49 75.84 236.17" style="fill:#263238;"></polygon><path d="M85.14,248.91l-11.49-10.05-3.77,24.17s4.99,7.98,5.08,7.54c.08-.44,10.18-21.66,10.18-21.66Z" style="fill:#FF725E;"></path><path d="M85.14,248.91l-11.49-10.05-3.77,24.17s4.99,7.98,5.08,7.54c.08-.44,10.18-21.66,10.18-21.66Z" style="isolation:isolate; opacity:.4;"></path><polygon points="83.9 249.38 74.01 240.97 68.97 240.51 70.31 260.69 76.5 263.85 83.9 249.38" style="fill:#FF725E;"></polygon><polygon points="83.9 249.38 74.01 240.97 68.97 240.51 70.31 260.69 76.5 263.85 83.9 249.38" style="fill:#fff; isolation:isolate; opacity:.7;"></polygon><polygon points="68.52 238.33 78.88 248.41 85.14 248.91 80.11 281.01 71.43 283.14 64.11 271.11 68.52 238.33" style="fill:#FF725E;"></polygon><polygon points="68.52 238.33 78.88 248.41 85.14 248.91 80.11 281.01 71.43 283.14 64.11 271.11 68.52 238.33" style="isolation:isolate; opacity:.2;"></polygon></g><g><path d="M57.91,213.37c-.8,1.46-18.49,31.33-19.16,37.85-.78,7.64,.76,9.93,4.06,11.94,3.29,2.02,35.42,2.91,35.42,2.91l-1.16-9.61-22.24-6.21,19.37-30.24-16.29-6.63Z" style="fill:#895555;"></path><path d="M70.25,202.92s-8.05-.69-12.13,7.55c-3.76,7.59-13.05,24.21-13.05,24.21l19.37,8.21,10.75-19.13-4.94-20.83Z" style="fill:#FF725E;"></path><path d="M70.25,202.92s-8.05-.69-12.13,7.55c-3.76,7.59-13.05,24.21-13.05,24.21l19.37,8.21,10.75-19.13-4.94-20.83Z" style="fill:#263238; opacity:.7;"></path></g><path d="M65.37,265.14l12.85,.93s2.03,1.86,3.76,2.82c1.74,.96,4,2.07,7.22,1.33,3.22-.75,1.31-2.27,1.31-2.27,3.12-1.19,1.9-3.79,1.9-3.79,2.75-.97,1.71-3.84,1.71-3.84,0,0-.7-3.41-1.74-4.62-1.05-1.21-6.78-1.62-6.78-1.62l-5.97,2.56-12.72-1.72c-.03,.23-1.54,10.22-1.54,10.22Z" style="fill:#895555;"></path></g><g><path d="M81.06,201.64c4.78-4.58,3.82-17,2.55-23.42l15.05,11.6c-.3,.75-.56,1.52-.75,2.31-.41,1.41-.44,2.89-.11,4.32,.33,1.17,1.84,4.41,1.84,4.41,0,0,.93,3.66-8.83,4.05-4.26,.63-9.75-3.26-9.75-3.26Z" style="fill:#895555;"></path><path d="M86.56,184.65c-.42,7.6,7.35,10.82,11.25,11.8-.34-1.43-.3-2.91,.11-4.32l-11.36-7.49Z" style="isolation:isolate; opacity:.2;"></path><g><g><path d="M80.83,172.72c2.28,8.82,3.39,13.84,8.91,17.5,8.31,5.52,18.63-.55,19.11-9.9,.43-8.41-3.38-21.42-13.06-23.2-9.54-1.75-17.25,6.77-14.96,15.59Z" style="fill:#895555;"></path><path d="M76.98,160.72c.34-5.51,13.88-8.11,18.18-6.13,.64,.3-6.63,5.72-6.18,5.45l-3.54,1.98c-.61-.02-1.62,.86-1.88,2.73,0,0,3.25,14.54-.2,19.57-3.74-.98-5.06-6.74-6.8-9.98-2.6-4.84-5.99-12,.41-13.61Z" style="fill:#263238;"></path><path d="M78.64,180.84c1.18,2.16,3.28,3.57,5.27,4.11,3,.81,3.46-2.29,2.66-5.06-.72-2.49-2.08-5.43-5.1-5.02-2.98,.4-4.17,3.49-2.83,5.96Z" style="fill:#895555;"></path><path d="M93.31,172.45c.18,.91,.82,1.55,1.43,1.43,.61-.12,.97-.96,.79-1.87-.18-.91-.82-1.56-1.43-1.43-.61,.12-.97,.96-.79,1.87Z" style="fill:#263238;"></path><path d="M102.59,171.38c.18,.91,.82,1.56,1.43,1.43,.61-.12,.97-.96,.79-1.87-.18-.91-.82-1.56-1.43-1.43-.61,.12-.97,.96-.79,1.87Z" style="fill:#263238;"></path><path d="M100.63,171.34s3.85,3.98,5.16,5.65c-1.09,1.39-3.44,1.29-3.44,1.29l-1.72-6.93Z" style="fill:#6d3939;"></path><path d="M91.35,168.96c.15,.03,.32-.02,.43-.14,1.33-1.47,2.96-1.27,2.98-1.27,.24,.03,.47-.14,.51-.37,.04-.24-.13-.46-.38-.49-.09-.01-2.14-.26-3.78,1.57-.16,.18-.15,.46,.04,.61,.06,.05,.13,.08,.2,.1Z" style="fill:#263238;"></path></g><path d="M84.97,180.12c-.11,0-.2-.07-.24-.17-.23-.71-.64-1.35-1.2-1.86-.36-.33-.94-.73-1.63-.76-.61-.02-1.21,.29-1.42,.76-.06,.13-.2,.18-.33,.13-.13-.06-.18-.2-.13-.33,.29-.66,1.08-1.1,1.9-1.05,.84,.04,1.52,.51,1.94,.89,.63,.57,1.09,1.28,1.34,2.08,.04,.13-.03,.27-.16,.31-.02,0-.05,.01-.08,.01Z" style="opacity:.2;"></path></g><path d="M107.06,166.67c.08-.03,.15-.09,.2-.16,.14-.2,.08-.47-.12-.61-2.05-1.33-3.94-.53-4.03-.51-.23,.1-.33,.35-.24,.58,.1,.22,.35,.32,.58,.23,.08-.04,1.54-.63,3.19,.44,.13,.08,.29,.09,.42,.04Z" style="fill:#263238;"></path><g><path d="M102.19,181.35c-.71,1.04-1.35,2.12-1.9,3.25-.21-.06-.43-.12-.63-.2-2.87-.91-3.9-2.27-4.16-3.51-.12-.61-.09-1.24,.08-1.84,.09-.34,.22-.66,.4-.97,1.23,1.39,3.83,2.44,5.25,2.94,.62,.19,.97,.33,.97,.33Z" style="fill:#263238;"></path><path d="M101.25,181l-.59,.94c-2.69-.86-4.47-1.82-5.06-2.92,.09-.34,.22-.66,.4-.97,1.24,1.4,3.83,2.44,5.25,2.94Z" style="fill:#fff;"></path><path d="M99.68,184.38c-2.87-.91-3.9-2.27-4.16-3.51,1.08,.36,2.09,.92,2.98,1.63,.58,.49,.99,1.15,1.18,1.88Z" style="fill:#c15854;"></path></g><path d="M81.35,159.2s4.15-13.6,16.61-13.28c-1.12,.47-2.15,1.14-3.02,2,0,0,10.3-2.84,14.91,3.91l-2.22-.8s3.78,5.59,1.4,10.18l-.95-1.91s-3.31,6.1-9.99,5.77l2-1.54s-11.07,1.69-14.27-.6c-1.63-1.07-3.13-2.32-4.48-3.73Z" style="fill:#263238;"></path></g></g></g></svg>
